<svg version="1.2" xmlns="http://www.w3.org/2000/svg" viewBox="0 0 300 300" width="300" height="300">
	<title>Vector Smart Object-ai</title>
	<style>
		.s0 { fill: #b4811d } 
		.s1 { fill: #f3cf85 } 
		.s2 { fill: #ffc944 } 
	</style>
	<g id="Isolation Mode">
		<g id="&lt;Group&gt;">
			<g id="&lt;Group&gt;">
				<g id="&lt;Group&gt;">
					<g id="&lt;Group&gt;">
						<path id="&lt;Compound Path&gt;" fill-rule="evenodd" class="s0" d="m132.8 157.1l0.3-7c0.3-2.3 0.7-4.6 1-6.9 0.5-2.2 1-4.5 1.5-6.8 0.7-2.2 1.5-4.4 2.2-6.6 3.3-8.8 8.2-17 14.5-24.2q2.5-2.5 5-5.1c1.8-1.6 3.6-3.2 5.5-4.8 2-1.4 3.9-2.8 5.9-4.2 2.2-1.2 4.3-2.5 6.4-3.6 8.8-4.5 18.6-7.5 28.7-8.4 10.1-0.8 20.7 0.2 30.7 3.5 2.5 0.9 4.9 1.9 7.4 2.9 2.4 1.1 4.7 2.4 7.1 3.6 2.2 1.4 4.5 2.9 6.7 4.3 2.2 1.6 4.2 3.4 6.3 5.1 8 7.2 14.6 16.2 19.1 26.2 0.9 2.5 2 5.1 2.9 7.7 0.7 2.6 1.6 5.2 2.1 7.9 0.5 2.7 0.9 5.5 1.3 8.2 0.2 2.7 0.3 5.5 0.5 8.2q-0.2 4.1-0.5 8.2c-0.4 2.7-0.8 5.4-1.3 8.2-0.6 2.6-1.4 5.3-2.1 7.9-0.9 2.6-2 5.1-3 7.7-4.5 10-11 19-19 26.1-8.1 7.2-17.6 12.5-27.5 15.9-10 3.3-20.6 4.3-30.7 3.5-10.1-0.9-19.9-3.8-28.7-8.3-2.1-1.2-4.2-2.5-6.3-3.7-2.1-1.3-4-2.8-6-4.2-1.8-1.5-3.6-3.1-5.4-4.7l-5-5.2c-6.3-7.1-11.3-15.3-14.6-24.1-0.7-2.2-1.5-4.4-2.2-6.6-0.5-2.3-1-4.6-1.5-6.8-0.3-2.3-0.7-4.6-1-6.9zm1.6 0c0 9 1.8 18.1 5.3 26.5 3.5 8.4 8.7 16 15.1 22.4 6.5 6.4 14.2 11.5 22.5 14.9 8.4 3.5 17.5 5.2 26.5 5.2 9 0 18.1-1.8 26.4-5.3 8.3-3.5 15.9-8.7 22.3-15.1 6.3-6.4 11.4-14 14.8-22.3 3.4-8.4 5.2-17.4 5.2-26.3 0-9-1.8-18-5.2-26.4-3.4-8.3-8.5-15.9-14.8-22.3-6.4-6.4-14-11.6-22.3-15-8.3-3.5-17.4-5.3-26.4-5.4-9 0-18.1 1.7-26.5 5.2-8.3 3.4-16 8.5-22.5 14.9-6.4 6.4-11.6 14-15.1 22.4-3.5 8.4-5.3 17.5-5.3 26.6z"/>
						<path id="&lt;Path&gt;" class="s1" d="m289.4 149.9c-0.3-2.3-0.7-4.7-1-7-0.5-2.3-1.1-4.6-1.6-6.9-0.6-2.3-1.5-4.5-2.2-6.8-3.4-8.9-8.4-17.3-14.8-24.6l-5.1-5.2c-1.8-1.6-3.7-3.3-5.6-4.8-2-1.4-3.9-2.9-6-4.3-2.2-1.2-4.3-2.6-6.5-3.7-8.9-4.6-18.9-7.6-29.2-8.5-10.3-0.8-21 0.3-31.2 3.6-10.1 3.4-19.8 8.8-28 16.1-8.2 7.3-14.8 16.5-19.4 26.7-1 2.5-2.1 5.1-3 7.8-0.7 2.7-1.6 5.3-2.2 8.1-0.4 2.7-0.9 5.5-1.3 8.3q-0.3 4.1-0.5 8.3c0.1 2.8 0.3 5.6 0.5 8.4 0.4 2.8 0.8 5.5 1.3 8.3 0.6 2.7 1.4 5.4 2.2 8.1 0.9 2.6 2 5.2 3 7.8 3 6.9 7.1 13.3 11.9 19l9.9-10.7c-3.2-4.4-5.8-9.1-7.9-14.1-3.5-8.5-5.2-17.6-5.2-26.8 0-9.1 1.7-18.3 5.2-26.8 3.5-8.4 8.7-16.2 15.1-22.8 6.5-6.5 14.3-11.7 22.7-15.2 8.5-3.6 17.7-5.4 26.9-5.5 9.2 0 18.4 1.8 26.9 5.3 8.6 3.5 16.4 8.7 23 15.2 6.5 6.5 11.8 14.3 15.3 22.8 3.6 8.5 5.5 17.8 5.5 27 0 9.3-1.9 18.5-5.5 27-3.5 8.6-8.8 16.4-15.3 22.9-6.6 6.5-14.4 11.7-23 15.2-8.5 3.5-17.7 5.2-26.9 5.2-8.3 0-16.7-1.6-24.5-4.5l-8 9.1q0.6 0.3 1.3 0.5c10.2 3.4 20.9 4.4 31.2 3.6 10.3-0.9 20.3-3.9 29.2-8.5 2.2-1.2 4.4-2.5 6.5-3.7 2.1-1.4 4.1-2.9 6.1-4.3 1.9-1.6 3.7-3.2 5.5-4.8q2.6-2.7 5.1-5.3c6.4-7.3 11.4-15.6 14.8-24.5 0.7-2.3 1.6-4.5 2.2-6.8 0.5-2.3 1.1-4.6 1.6-7 0.3-2.3 0.7-4.6 1-7l0.3-7.1z"/>
					</g>
					<g id="&lt;Group&gt;">
						<path id="&lt;Compound Path&gt;" fill-rule="evenodd" class="s0" d="m10.6 157.1l0.4-8.6c0.3-2.8 0.8-5.7 1.2-8.5 0.6-2.8 1.2-5.6 1.9-8.4 0.8-2.8 1.8-5.5 2.7-8.3 4-10.8 10.1-20.9 17.9-29.7q3.1-3.2 6.2-6.4c2.2-2 4.4-4 6.7-5.9 2.4-1.7 4.8-3.5 7.4-5.2 2.6-1.5 5.2-3.1 7.8-4.5 10.8-5.5 22.9-9.2 35.4-10.2 12.5-1.1 25.6 0.2 37.9 4.3 3.1 1 6.1 2.3 9.1 3.5 3 1.4 5.9 3 8.8 4.5 2.8 1.7 5.6 3.5 8.3 5.3 2.7 2 5.2 4.1 7.8 6.3 9.9 8.8 18 19.9 23.5 32.3 1.2 3.1 2.6 6.3 3.7 9.5 0.9 3.2 1.9 6.5 2.6 9.8 0.5 3.3 1.1 6.7 1.5 10.1 0.3 3.3 0.5 6.7 0.6 10.1q-0.2 5.1-0.6 10.1c-0.4 3.4-1 6.8-1.5 10.1-0.7 3.3-1.8 6.6-2.7 9.8-1.1 3.2-2.4 6.4-3.6 9.5-5.5 12.3-13.7 23.4-23.6 32.3-9.9 8.9-21.6 15.4-33.9 19.6-12.4 4-25.4 5.3-37.9 4.3-12.5-1.1-24.5-4.7-35.3-10.3-2.7-1.4-5.3-3-7.9-4.5-2.5-1.6-4.9-3.4-7.4-5.2-2.3-1.9-4.5-3.9-6.7-5.8l-6.2-6.4c-7.8-8.8-13.9-18.9-17.9-29.7-0.9-2.8-1.9-5.5-2.7-8.3-0.7-2.8-1.3-5.6-1.9-8.4-0.4-2.8-0.9-5.7-1.2-8.5zm1.9 0c0 11.2 2.3 22.4 6.6 32.8 4.3 10.3 10.7 19.8 18.6 27.6 8 7.9 17.5 14.2 27.8 18.5 10.4 4.2 21.5 6.4 32.7 6.4 11.2-0.1 22.3-2.3 32.6-6.7 10.3-4.2 19.7-10.6 27.5-18.5 7.9-7.9 14.1-17.3 18.3-27.6 4.3-10.3 6.4-21.4 6.4-32.5 0-11.1-2.1-22.2-6.4-32.5-4.2-10.3-10.4-19.7-18.3-27.6-7.8-7.9-17.2-14.3-27.5-18.6-10.3-4.3-21.4-6.5-32.6-6.6-11.2 0-22.3 2.2-32.7 6.4-10.3 4.3-19.8 10.6-27.7 18.4-8 7.9-14.4 17.4-18.7 27.7-4.3 10.4-6.6 21.6-6.6 32.8z"/>
						<path id="&lt;Compound Path&gt;" fill-rule="evenodd" class="s1" d="m204.3 157l-0.4 8.8c-0.3 2.9-0.8 5.8-1.2 8.6-0.6 2.9-1.3 5.7-2 8.6-0.8 2.8-1.8 5.6-2.7 8.4-4.1 11-10.3 21.3-18.3 30.3q-3.1 3.2-6.2 6.5c-2.3 2-4.6 4-6.9 6-2.5 1.7-4.9 3.6-7.5 5.3-2.6 1.5-5.3 3.1-8 4.5-11 5.7-23.3 9.4-36.1 10.5-12.7 1.1-25.9-0.3-38.5-4.4-3.1-1.1-6.2-2.4-9.3-3.6-3-1.4-5.9-3-8.9-4.6-2.9-1.7-5.7-3.5-8.5-5.4-2.7-2-5.3-4.2-7.9-6.3-10.1-9.1-18.4-20.4-24-33-1.2-3.2-2.6-6.4-3.7-9.6-0.9-3.3-1.9-6.6-2.6-10-0.6-3.4-1.2-6.8-1.6-10.3-0.3-3.4-0.5-6.8-0.6-10.3q0.2-5.2 0.6-10.3c0.4-3.4 1-6.8 1.6-10.3 0.7-3.3 1.8-6.6 2.7-9.9 1.1-3.3 2.4-6.5 3.7-9.7 5.6-12.6 13.9-23.8 23.9-32.9 10.2-9 22.1-15.7 34.6-19.9 12.6-4.1 25.8-5.5 38.5-4.4 12.8 1.1 25.1 4.8 36.1 10.5 2.7 1.4 5.3 3 8 4.5 2.5 1.7 5 3.6 7.5 5.3 2.3 2 4.6 4 6.8 6l6.3 6.4c7.9 9 14.1 19.3 18.3 30.4 0.9 2.7 1.9 5.5 2.7 8.3 0.7 2.9 1.4 5.7 2 8.6 0.4 2.9 0.9 5.8 1.2 8.7zm-1.9 0c-0.1-11.5-2.4-22.9-6.8-33.4-4.4-10.5-10.9-20.2-19-28.2-8.1-8-17.7-14.4-28.3-18.7-10.5-4.4-21.9-6.6-33.2-6.5-11.4 0-22.7 2.3-33.2 6.7-10.5 4.4-20 10.8-28 18.9-8 8-14.4 17.6-18.7 28.1-4.3 10.5-6.5 21.8-6.4 33.1 0 11.3 2.1 22.6 6.4 33 4.3 10.5 10.7 20.1 18.7 28.2 8 8 17.5 14.5 28 18.8 10.5 4.4 21.8 6.7 33.2 6.8 11.3 0 22.7-2.2 33.2-6.5 10.6-4.4 20.2-10.8 28.3-18.8 8.1-8 14.6-17.7 19-28.2 4.4-10.5 6.7-21.9 6.8-33.3z"/>
					</g>
					<path id="&lt;Path&gt;" class="s1" d="m190.5 221.9c-8.4-3.6-16.2-8.8-22.7-15.3q-4-4-7.2-8.7l-9.9 10.7c2.3 2.7 4.8 5.3 7.5 7.7 2.1 1.7 4.2 3.5 6.4 5.1 2.3 1.5 4.5 3 6.8 4.4 2.5 1.3 4.8 2.5 7.3 3.7 2.1 0.8 4.1 1.7 6.2 2.4l8-9.1q-1.2-0.4-2.4-0.9z"/>
				</g>
				<g id="&lt;Group&gt;">
					<path id="&lt;Path&gt;" class="s0" d="m196.3 51c-2.6-4.6-8.8-6.2-13.8-4.5-2.5 0.8-4.7 2.3-6.7 4.2-1.9-1.9-4.1-3.4-6.7-4.2-4.9-1.7-11.2-0.1-13.8 4.5-1.7 3.1-1.5 7-0.2 10.4 1.4 3.3 3.7 6.1 6.2 8.7 4.4 4.6 9.3 8.7 14.5 12.3v0.1q0-0.1 0-0.1 0.1 0 0.1 0.1v-0.1c5.2-3.6 10.1-7.7 14.4-12.3 2.5-2.6 4.9-5.4 6.2-8.7 1.4-3.4 1.6-7.3-0.2-10.4z"/>
					<path id="&lt;Path&gt;" class="s2" d="m191.3 53.5c-2-2.7-6.7-3.6-10.4-2.6-1.9 0.5-3.6 1.3-5.1 2.4-1.4-1.1-3.1-1.9-5-2.4-3.8-1-8.5-0.1-10.4 2.6-1.4 1.8-1.2 4-0.2 6 1 1.9 2.8 3.5 4.7 5 3.3 2.6 7 5 10.9 7v0.1q0 0 0 0 0 0 0.1 0v-0.1c3.9-2 7.6-4.4 10.9-7 1.9-1.5 3.6-3.1 4.7-5 1-2 1.1-4.2-0.2-6z"/>
				</g>
			</g>
		</g>
	</g>
</svg>