<!DOCTYPE svg PUBLIC "-//W3C//DTD SVG 1.1//EN" "http://www.w3.org/Graphics/SVG/1.1/DTD/svg11.dtd">
<!-- Uploaded to: SVG Repo, www.svgrepo.com, Transformed by: SVG Repo Mixer Tools -->
<svg height="800px" width="800px" version="1.1" id="Layer_1" xmlns="http://www.w3.org/2000/svg" xmlns:xlink="http://www.w3.org/1999/xlink" viewBox="0 0 512 512" xml:space="preserve" fill="#b47f1c" stroke="#b47f1c">
<g id="SVGRepo_bgCarrier" stroke-width="0"/>
<g id="SVGRepo_tracerCarrier" stroke-linecap="round" stroke-linejoin="round"/>
<g id="SVGRepo_iconCarrier"> <g> <path style="fill:#b47f1c;" d="M283.072,275.705v-16.144c26.28-14.88,35.528-48.248,20.648-74.536 c-14.88-26.28-48.248-35.528-74.536-20.648c-26.28,14.88-35.528,48.248-20.648,74.536c4.88,8.624,12.024,15.76,20.648,20.648 v16.144c-50.96,2.4-76.872,36.84-76.872,60v19.024h207.64v-19.024C359.952,312.545,334.04,278.089,283.072,275.705z"/> <path style="fill:#b47f1c;" d="M464.064,268.297v-10.072c16.384-9.28,22.152-30.08,12.872-46.472 c-9.28-16.384-30.08-22.152-46.472-12.872c-16.384,9.28-22.152,30.08-12.872,46.472c3.048,5.376,7.496,9.824,12.872,12.872v10.064 c-31.776,1.488-47.936,22.968-47.936,37.416v11.856H512v-11.856C512,291.265,495.84,269.785,464.064,268.297z"/> <path style="fill:#b47f1c;" d="M81.536,268.297v-10.072c16.384-9.28,22.152-30.08,12.872-46.472s-30.08-22.152-46.472-12.872 c-16.384,9.28-22.152,30.08-12.872,46.472c3.048,5.376,7.496,9.824,12.872,12.872v10.064C16.16,269.785,0,291.265,0,305.705v11.856 h129.472v-11.856C129.472,291.265,113.312,269.785,81.536,268.297z"/> </g> </g>
</svg>